<?xml version="1.0" encoding="UTF-8"?>
<svg width="159px" height="159px" viewBox="0 0 159 159" version="1.1" xmlns="http://www.w3.org/2000/svg" xmlns:xlink="http://www.w3.org/1999/xlink">
    <!-- Generator: Sketch 42 (36781) - http://www.bohemiancoding.com/sketch -->
    <title>logo-lucas</title>
    <desc>Created with Sketch.</desc>
    <defs></defs>
    <g id="Page-1" stroke="none" stroke-width="1" fill="none" fill-rule="evenodd">
        <g id="logo-lucas" fill-rule="nonzero">
            <polygon id="Shape" fill="#868686" points="51.45 106.83 40.31 143.97 5.53 156.25 0.13 158.14 14.31 117.97"></polygon>
            <polygon id="Shape" fill="#868686" points="73.83 31.98 73.9 32 65.03 61.53 65.02 61.55 51.45 106.8 51.45 106.83 14.31 117.97 37.18 53.15 47.87 22.86 55.88 0.13 82.9 0.13"></polygon>
            <polygon id="Shape" fill="#575756" points="47.88 22.86 37.18 53.15 0.13 42.03 0.13 6.07"></polygon>
            <polygon id="Shape" fill="#575756" points="158.14 61.6 158.14 102.37 45.61 142.08 56.61 105.23 65.53 102.57 65.53 102.82 88.23 95.82 133.68 82.19 75.38 64.68 72.47 63.81 69.33 62.87 78.12 33.54 80.44 34.35"></polygon>
            <polygon id="Shape" fill="#6F6F6E" points="56.65 105.25 45.61 142.1 40.31 143.97 51.45 106.83"></polygon>
            <polyline id="Shape" fill="#575756" points="0.13 122.21 14.31 117.97 0.13 158.14"></polyline>
            <polygon id="Shape" fill="#3C3C3B" points="78.16 33.51 69.37 62.84 72.51 63.78 65.02 61.55 65.03 61.53 73.9 32 80.48 34.32"></polygon>
        </g>
    </g>
</svg>