<?xml version="1.0" encoding="UTF-8"?>
<svg width="21px" height="24px" viewBox="0 0 21 24" version="1.1" xmlns="http://www.w3.org/2000/svg" xmlns:xlink="http://www.w3.org/1999/xlink">
    <!-- Generator: Sketch 42 (36781) - http://www.bohemiancoding.com/sketch -->
    <title>icon / html5</title>
    <desc>Created with Sketch.</desc>
    <defs></defs>
    <g id="Layout-Mobile" stroke="none" stroke-width="1" fill="none" fill-rule="evenodd">
        <g id="Home" transform="translate(-177.000000, -1257.000000)" fill="#808080">
            <g id="&lt;section&gt;-TL;-DR" transform="translate(7.000000, 525.000000)">
                <g id="tl;dr-content" transform="translate(33.000000, 0.000000)">
                    <g id="excel-with" transform="translate(0.000000, 682.000000)">
                        <g id="icons-set" transform="translate(0.000000, 50.000000)">
                            <g id="icon-/-html5" transform="translate(135.000000, 0.000000)">
                                <path d="M2,0 L23,0 L21.0905,21.5625 L12.476,24 L3.911,21.5625 L2,0 Z M9.0305,9.75 L8.798,7.032 L18.857,7.035 L19.088,4.413 L5.912,4.41 L6.6095,12.42 L15.7355,12.42 L15.41,15.846 L12.5,16.65 L9.545,15.84 L9.3575,13.731 L6.7475,13.731 L7.0775,17.901 L12.5,19.35 L17.879,17.907 L18.623,9.75 L9.0305,9.75 L9.0305,9.75 Z" id="Shape"></path>
                            </g>
                        </g>
                    </g>
                </g>
            </g>
        </g>
    </g>
</svg>