<?xml version="1.0" encoding="UTF-8"?>
<svg width="24px" height="24px" viewBox="0 0 24 24" version="1.1" xmlns="http://www.w3.org/2000/svg" xmlns:xlink="http://www.w3.org/1999/xlink">
    <!-- Generator: Sketch 42 (36781) - http://www.bohemiancoding.com/sketch -->
    <title>icon / javascript</title>
    <desc>Created with Sketch.</desc>
    <defs></defs>
    <g id="Layout-Mobile" stroke="none" stroke-width="1" fill="none" fill-rule="evenodd">
        <g id="Home" transform="translate(-241.000000, -1257.000000)" fill-rule="nonzero" fill="#808080">
            <g id="&lt;section&gt;-TL;-DR" transform="translate(7.000000, 525.000000)">
                <g id="tl;dr-content" transform="translate(33.000000, 0.000000)">
                    <g id="excel-with" transform="translate(0.000000, 682.000000)">
                        <g id="icons-set" transform="translate(0.000000, 50.000000)">
                            <g id="icon-/-javascript" transform="translate(201.000000, 0.000000)">
                                <path d="M0,0 L24,0 L24,24 L0,24 L0,0 Z M22.035,18.276 C21.8595,17.181 21.1455,16.2615 19.0305,15.4035 C18.2955,15.0585 17.478,14.8185 17.2335,14.2635 C17.1435,13.9335 17.1285,13.7535 17.1885,13.5585 C17.3385,12.9135 18.1035,12.7185 18.7035,12.8985 C19.0935,13.0185 19.4535,13.3185 19.6785,13.7985 C20.7135,13.1235 20.7135,13.1235 21.4335,12.6735 C21.1635,12.2535 21.0285,12.0735 20.8485,11.8935 C20.2185,11.1885 19.3785,10.8285 18.0135,10.8585 L17.3085,10.9485 C16.6335,11.1135 15.9885,11.4735 15.5985,11.9535 C14.4585,13.2435 14.7885,15.4935 16.1685,16.4235 C17.5335,17.4435 19.5285,17.6685 19.7835,18.6285 C20.0235,19.7985 18.9135,20.1735 17.8185,20.0385 C17.0085,19.8585 16.5585,19.4535 16.0635,18.7035 L14.2335,19.7535 C14.4435,20.2335 14.6835,20.4435 15.0435,20.8635 C16.7835,22.6185 21.1335,22.5285 21.9135,19.8585 C21.9435,19.7685 22.1535,19.1535 21.9885,18.2085 L22.035,18.276 Z M13.05,11.031 L10.803,11.031 C10.803,12.969 10.794,14.895 10.794,16.836 C10.794,18.069 10.857,19.2 10.656,19.5465 C10.326,20.2365 9.477,20.1465 9.09,20.0265 C8.694,19.8315 8.493,19.5615 8.2605,19.1715 C8.1975,19.0665 8.1495,18.9765 8.133,18.9765 L6.3075,20.1015 C6.612,20.7315 7.0575,21.2715 7.632,21.6165 C8.487,22.1265 9.636,22.2915 10.839,22.0215 C11.622,21.7965 12.297,21.3315 12.6495,20.6115 C13.1595,19.6815 13.0515,18.5415 13.047,17.2665 C13.059,15.2115 13.047,13.1565 13.047,11.0865 L13.05,11.031 Z" id="Shape"></path>
                            </g>
                        </g>
                    </g>
                </g>
            </g>
        </g>
    </g>
</svg>