<?xml version="1.0" encoding="UTF-8"?>
<svg width="18px" height="12px" viewBox="0 0 18 12" version="1.1" xmlns="http://www.w3.org/2000/svg" xmlns:xlink="http://www.w3.org/1999/xlink">
    <!-- Generator: Sketch 42 (36781) - http://www.bohemiancoding.com/sketch -->
    <title>social icon / behance</title>
    <desc>Created with Sketch.</desc>
    <defs></defs>
    <g id="Layout-Mobile" stroke="none" stroke-width="1" fill="none" fill-rule="evenodd">
        <g id="Home" transform="translate(-191.000000, -2273.000000)" fill="#808080">
            <g id="&lt;section&gt;-contact" transform="translate(0.000000, 2028.000000)">
                <g id="Social-Icons" transform="translate(68.000000, 239.000000)">
                    <g id="social-icon-/-behance" transform="translate(120.000000, 0.000000)">
                        <path d="M8.20359094,6 C8.73067881,6 9.20842229,6.04485854 9.64355015,6.14018295 C10.0764351,6.23214296 10.4453966,6.384662 10.7582849,6.59549715 C11.065566,6.80521084 11.3078021,7.08445527 11.4782645,7.43659483 C11.6464841,7.78424853 11.7317153,8.21825493 11.7317153,8.73188524 C11.7317153,9.28700971 11.6049899,9.75241708 11.3526606,10.1225001 C11.0992099,10.492583 10.724641,10.7976211 10.2267112,11.0331285 C10.9063181,11.2282631 11.4087338,11.571431 11.7429299,12.0603891 C12.079369,12.5538331 12.2419812,13.1482088 12.2419812,13.8323015 C12.2419812,14.3930333 12.1410495,14.8752626 11.9279714,15.2789895 C11.7148934,15.693931 11.4233128,16.0303701 11.0532299,16.2883067 C10.6943615,16.5462434 10.2682054,16.7368922 9.79719066,16.8602532 C9.3373906,16.9836141 8.85516127,17.050902 8.3617173,17.050902 L3,17.050902 L3,6.00336439 L8.20359094,6.00336439 L8.20359094,6 Z M15.7061822,15.1208632 C16.034771,15.4416017 16.5102716,15.6030925 17.1259551,15.6030925 C17.5678117,15.6030925 17.9513522,15.4909461 18.2720908,15.2666534 C18.5905865,15.0457251 18.7834782,14.8068534 18.8586163,14.5601314 L20.7987482,14.5601314 C20.4959531,15.5212257 20.0137237,16.2086828 19.3744895,16.6213814 C18.7352553,17.0363229 17.9614454,17.2437937 17.0642746,17.2437937 C16.436255,17.2437937 15.8755232,17.142862 15.3596499,16.9409985 C14.8549913,16.7391351 14.4288352,16.4531619 14.0699668,16.0819574 C13.7223131,15.7096315 13.4531619,15.2677749 13.2625131,14.7496587 C13.0718643,14.2337855 12.9821472,13.6618391 12.9821472,13.0450341 C12.9821472,12.4394438 13.0830789,11.8899266 13.2849423,11.3740534 C13.4868058,10.8469655 13.7671717,10.4095947 14.12604,10.0282971 C14.496123,9.64699951 14.9222791,9.35541898 15.4269378,9.13112627 C15.9315964,8.90683356 16.4811135,8.80590184 17.0979185,8.80590184 C17.7820112,8.80590184 18.3651723,8.92926283 18.8810455,9.19841408 C19.3857041,9.4563507 19.8006457,9.81521904 20.1258701,10.2525898 C20.4623092,10.6899606 20.6866019,11.1946192 20.8323921,11.7665656 C20.9781824,12.3272974 21.0230409,12.9216731 20.989397,13.5496927 L15.2239528,13.5496927 C15.2239528,14.1777123 15.4370309,14.772088 15.7622554,15.0973124 L15.7061822,15.1208632 Z M8.02415677,15.1578715 C8.26302851,15.1578715 8.49068561,15.1354422 8.70488515,15.0883407 C8.92244908,15.0434822 9.11534081,14.9649797 9.27683157,14.864048 C9.44056525,14.7631163 9.57514088,14.617326 9.67270821,14.4266772 C9.77027554,14.247243 9.81849847,14.0005211 9.81849847,13.7089405 C9.81849847,13.1482088 9.65812918,12.7444819 9.33963353,12.4977599 C9.02001641,12.2622525 8.59498172,12.1388915 8.0723797,12.1388915 L5.43021154,12.1388915 L5.43021154,15.1780578 L8.02415677,15.1780578 L8.02415677,15.1578715 Z M18.2294752,10.9221036 C17.9670527,10.632766 17.5251961,10.4768825 16.9868936,10.4768825 C16.6358755,10.4768825 16.3454164,10.5329557 16.112152,10.6563167 C15.8856163,10.7684631 15.6994534,10.9142533 15.5570275,11.0936875 C15.4157231,11.2731217 15.3192772,11.4525558 15.2632041,11.6544193 C15.2071309,11.8450681 15.173487,12.0245023 15.1622724,12.1815072 L18.7341338,12.1815072 C18.681425,11.6207754 18.4907762,11.2058339 18.2294752,10.9142533 L18.2294752,10.9221036 Z M7.88958114,10.4589391 C8.32022315,10.4589391 8.67684856,10.3580074 8.95833592,10.1494152 C9.23870181,9.94530882 9.37327743,9.60886975 9.37327743,9.1457053 C9.37327743,8.88776868 9.32841889,8.67693353 9.23870181,8.51207838 C9.14449887,8.34722324 9.02001641,8.21825493 8.86413298,8.12853784 C8.70712808,8.0343349 8.52769391,7.96929002 8.32583046,7.93452465 C8.12396702,7.89527342 7.91088895,7.87845147 7.69781087,7.87845147 L5.4223613,7.87845147 L5.4223613,10.4578177 L7.88958114,10.4578177 L7.88958114,10.4589391 Z M14.7136869,6.74016595 L19.1883265,6.74016595 L19.1883265,7.83022854 L14.7136869,7.83022854 L14.7136869,6.73119424 L14.7136869,6.74016595 Z" id="Shape"></path>
                    </g>
                </g>
            </g>
        </g>
    </g>
</svg>