<?xml version="1.0" encoding="UTF-8"?>
<svg width="18px" height="18px" viewBox="0 0 18 18" version="1.1" xmlns="http://www.w3.org/2000/svg" xmlns:xlink="http://www.w3.org/1999/xlink">
    <!-- Generator: Sketch 42 (36781) - http://www.bohemiancoding.com/sketch -->
    <title>social icon / github</title>
    <desc>Created with Sketch.</desc>
    <defs></defs>
    <g id="Layout-Mobile" stroke="none" stroke-width="1" fill="none" fill-rule="evenodd">
        <g id="Home" transform="translate(-151.000000, -2270.000000)" fill="#808080">
            <g id="&lt;section&gt;-contact" transform="translate(0.000000, 2028.000000)">
                <g id="Social-Icons" transform="translate(68.000000, 239.000000)">
                    <g id="social-icon-/-github" transform="translate(80.000000, 0.000000)">
                        <path d="M12,3 C7.0275,3 3,7.02878742 3,11.9978502 C3,15.9737752 5.5785,19.3457196 9.15375,20.5345605 C9.60375,20.6189154 9.769125,20.3411068 9.769125,20.101539 C9.769125,19.88784 9.76125,19.3221002 9.757875,18.5719045 C7.253625,19.1151497 6.726,17.3650678 6.726,17.3650678 C6.3165,16.3258161 5.72475,16.0491322 5.72475,16.0491322 C4.909125,15.4912655 5.78775,15.5025128 5.78775,15.5025128 C6.691125,15.5654978 7.165875,16.4292914 7.165875,16.4292914 C7.969125,17.8048377 9.273,17.4078076 9.787125,17.1772377 C9.868125,16.5957516 10.099875,16.1987215 10.3575,15.9737752 C8.358375,15.748829 6.258,14.9750139 6.258,11.5277125 C6.258,10.5458221 6.60675,9.74276398 7.183875,9.11291446 C7.082625,8.88571875 6.778875,7.97131222 7.262625,6.73185836 C7.262625,6.73185836 8.016375,6.49004114 9.737625,7.654138 C10.457625,7.45393584 11.222625,7.35495949 11.987625,7.35046056 C12.752625,7.35495949 13.517625,7.45393584 14.237625,7.654138 C15.947625,6.49004114 16.701375,6.73185836 16.701375,6.73185836 C17.185125,7.97131222 16.881375,8.88571875 16.791375,9.11291446 C17.365125,9.74276398 17.713875,10.5458221 17.713875,11.5277125 C17.713875,14.9840117 15.610125,15.7454548 13.607625,15.9670268 C13.922625,16.2369623 14.215125,16.7880807 14.215125,17.6316291 C14.215125,18.8350916 14.203875,19.8023605 14.203875,20.0947906 C14.203875,20.3309842 14.361375,20.612167 14.822625,20.5221885 C18.42375,19.3423454 21,15.9681516 21,11.9978502 C21,7.02878742 16.97025,3 12,3" id="Shape"></path>
                    </g>
                </g>
            </g>
        </g>
    </g>
</svg>