<?xml version="1.0" encoding="UTF-8"?>
<svg width="16px" height="14px" viewBox="0 0 16 14" version="1.1" xmlns="http://www.w3.org/2000/svg" xmlns:xlink="http://www.w3.org/1999/xlink">
    <!-- Generator: Sketch 42 (36781) - http://www.bohemiancoding.com/sketch -->
    <title></title>
    <desc>Created with Sketch.</desc>
    <defs></defs>
    <g id="Layout-Mobile" stroke="none" stroke-width="1" fill="none" fill-rule="evenodd">
        <path d="M14.8571429,4.17857143 C14.8571429,3.69642616 14.7931554,3.27083518 14.6651786,2.90178571 C14.5372017,2.53273625 14.3735129,2.23958442 14.1741071,2.02232143 C13.9747014,1.80505844 13.7321443,1.62797688 13.4464286,1.49107143 C13.1607129,1.35416598 12.8809537,1.261905 12.6071429,1.21428571 C12.333332,1.16666643 12.0416682,1.14285714 11.7321429,1.14285714 C11.4226175,1.14285714 11.0892875,1.21874924 10.7321429,1.37053571 C10.3749982,1.52232219 10.0461325,1.71279647 9.74553571,1.94196429 C9.44493897,2.1711321 9.18750107,2.38541567 8.97321429,2.58482143 C8.7589275,2.78422719 8.58035786,2.96726107 8.4375,3.13392857 C8.33035661,3.26488161 8.18452473,3.33035714 8,3.33035714 C7.81547527,3.33035714 7.66964339,3.26488161 7.5625,3.13392857 C7.41964214,2.96726107 7.2410725,2.78422719 7.02678571,2.58482143 C6.81249893,2.38541567 6.55506103,2.1711321 6.25446429,1.94196429 C5.95386754,1.71279647 5.62500179,1.52232219 5.26785714,1.37053571 C4.9107125,1.21874924 4.5773825,1.14285714 4.26785714,1.14285714 C3.95833179,1.14285714 3.66666804,1.16666643 3.39285714,1.21428571 C3.11904625,1.261905 2.83928714,1.35416598 2.55357143,1.49107143 C2.26785571,1.62797688 2.02529862,1.80505844 1.82589286,2.02232143 C1.6264871,2.23958442 1.46279826,2.53273625 1.33482143,2.90178571 C1.2068446,3.27083518 1.14285714,3.69642616 1.14285714,4.17857143 C1.14285714,5.17857643 1.6993992,6.23511348 2.8125,7.34821429 L8,12.3482143 L13.1785714,7.35714286 C14.2976246,6.23808964 14.8571429,5.17857643 14.8571429,4.17857143 Z M16,4.17857143 C16,5.4940542 15.3184592,6.83332652 13.9553571,8.19642857 L8.39285714,13.5535714 C8.28571375,13.6607148 8.15476268,13.7142857 8,13.7142857 C7.84523732,13.7142857 7.71428625,13.6607148 7.60714286,13.5535714 L2.03571429,8.17857143 C1.97619018,8.13095214 1.89434576,8.05357196 1.79017857,7.94642857 C1.68601138,7.83928518 1.52083446,7.64434665 1.29464286,7.36160714 C1.06845125,7.07886763 0.866072321,6.78869196 0.6875,6.49107143 C0.508927679,6.19345089 0.34970308,5.83333545 0.209821429,5.41071429 C0.0699397768,4.98809313 0,4.57738295 0,4.17857143 C0,2.86904107 0.377972411,1.84524179 1.13392857,1.10714286 C1.88988473,0.369043929 2.93451714,0 4.26785714,0 C4.63690661,0 5.01339094,0.0639874554 5.39732143,0.191964286 C5.78125192,0.319941116 6.13839121,0.492558438 6.46875,0.709821429 C6.79910879,0.92708442 7.08333214,1.13095143 7.32142857,1.32142857 C7.559525,1.51190571 7.78571321,1.71428464 8,1.92857143 C8.21428679,1.71428464 8.440475,1.51190571 8.67857143,1.32142857 C8.91666786,1.13095143 9.20089121,0.92708442 9.53125,0.709821429 C9.86160879,0.492558438 10.2187481,0.319941116 10.6026786,0.191964286 C10.9866091,0.0639874554 11.3630934,0 11.7321429,0 C13.0654829,0 14.1101153,0.369043929 14.8660714,1.10714286 C15.6220276,1.84524179 16,2.86904107 16,4.17857143 Z" id="" fill="#D9D9D9"></path>
    </g>
</svg>