<?xml version="1.0" encoding="UTF-8"?>
<svg width="18px" height="18px" viewBox="0 0 18 18" version="1.1" xmlns="http://www.w3.org/2000/svg" xmlns:xlink="http://www.w3.org/1999/xlink">
    <!-- Generator: Sketch 42 (36781) - http://www.bohemiancoding.com/sketch -->
    <title>social icon / twitter</title>
    <desc>Created with Sketch.</desc>
    <defs></defs>
    <g id="Layout-Mobile" stroke="none" stroke-width="1" fill="none" fill-rule="evenodd">
        <g id="Home" transform="translate(-111.000000, -2270.000000)" fill="#808080">
            <g id="&lt;section&gt;-contact" transform="translate(0.000000, 2028.000000)">
                <g id="Social-Icons" transform="translate(68.000000, 239.000000)">
                    <g id="social-icon-/-linkedin" transform="translate(40.000000, 0.000000)">
                        <path d="M18.336,18.339375 L15.66975,18.339375 L15.66975,14.16225 C15.66975,13.1655 15.6495,11.884125 14.2815,11.884125 C12.892125,11.884125 12.6795,12.968625 12.6795,14.089125 L12.6795,18.339375 L10.01325,18.339375 L10.01325,9.75 L12.57375,9.75 L12.57375,10.92 L12.6075,10.92 C12.96525,10.245 13.836,9.532875 15.135375,9.532875 C17.835375,9.532875 18.336,11.310375 18.336,13.6245 L18.336,18.336 L18.336,18.339375 Z M7.00275,8.574375 C6.1455,8.574375 5.45475,7.88025 5.45475,7.02525 C5.45475,6.1725 6.1455,5.478375 7.00275,5.478375 C7.85775,5.478375 8.55075,6.1725 8.55075,7.02525 C8.55075,7.88025 7.856625,8.574375 7.00275,8.574375 L7.00275,8.574375 Z M8.33925,18.339375 L5.66625,18.339375 L5.66625,9.75 L8.33925,9.75 L8.33925,18.339375 L8.33925,18.339375 Z M19.668,3 L4.3275,3 C3.594,3 3,3.5805 3,4.297125 L3,19.702875 C3,20.4195 3.594,21 4.3275,21 L19.666875,21 C20.400375,21 21,20.4195 21,19.702875 L21,4.297125 C21,3.5805 20.400375,3 19.666875,3 L19.668,3 Z" id="Shape"></path>
                    </g>
                </g>
            </g>
        </g>
    </g>
</svg>