<?xml version="1.0" encoding="UTF-8"?>
<svg width="24px" height="24px" viewBox="0 0 24 24" version="1.1" xmlns="http://www.w3.org/2000/svg" xmlns:xlink="http://www.w3.org/1999/xlink">
    <!-- Generator: Sketch 42 (36781) - http://www.bohemiancoding.com/sketch -->
    <title>icon / photoshop</title>
    <desc>Created with Sketch.</desc>
    <defs></defs>
    <g id="Layout-Mobile" stroke="none" stroke-width="1" fill="none" fill-rule="evenodd">
        <g id="Home" transform="translate(-104.000000, -1257.000000)" fill-rule="nonzero" fill="#808080">
            <g id="&lt;section&gt;-TL;-DR" transform="translate(7.000000, 525.000000)">
                <g id="tl;dr-content" transform="translate(33.000000, 0.000000)">
                    <g id="excel-with" transform="translate(0.000000, 682.000000)">
                        <g id="icons-set" transform="translate(0.000000, 50.000000)">
                            <g id="icon-/-photoshop" transform="translate(64.000000, 0.000000)">
                                <path d="M8.609,8.228 C8.0895,8.228 7.723,8.274 7.5245,8.3195 L7.5245,11.8025 C7.7535,11.8635 8.059,11.879 8.441,11.879 C9.8465,11.879 10.7015,11.1915 10.7015,9.9845 C10.7015,8.839 9.9075,8.228 8.609,8.228 Z" id="Shape"></path>
                                <path d="M0,0 L0,24 L24,24 L24,0 L0,0 Z M11.695,12.245 C10.9465,12.994 9.77,13.345 8.441,13.345 C8.09,13.345 7.769,13.3295 7.5245,13.284 L7.5245,17.164 L5.661,17.164 L5.661,7.006 C6.333,6.8835 7.265,6.792 8.533,6.792 C9.908,6.792 10.916,7.0825 11.573,7.632 C12.184,8.136 12.581,8.9455 12.581,9.908 C12.5805,10.8855 12.2755,11.695 11.695,12.245 Z M15.3145,17.3165 C14.414,17.3165 13.6045,17.103 13.054,16.7975 L13.42,15.4375 C13.8475,15.698 14.6575,15.972 15.3295,15.972 C16.1545,15.972 16.5205,15.6355 16.5205,15.1475 C16.5205,14.6435 16.2155,14.384 15.2995,14.063 C13.848,13.5585 13.2365,12.764 13.252,11.894 C13.252,10.5805 14.337,9.5565 16.0625,9.5565 C16.888,9.5565 17.6055,9.7705 18.033,9.9995 L17.6665,11.3285 C17.346,11.1455 16.75,10.901 16.0935,10.901 C15.421,10.901 15.055,11.222 15.055,11.6805 C15.055,12.154 15.4065,12.383 16.354,12.719 C17.698,13.208 18.324,13.895 18.3395,14.9955 C18.3395,16.339 17.2855,17.3165 15.3145,17.3165 Z" id="Shape"></path>
                            </g>
                        </g>
                    </g>
                </g>
            </g>
        </g>
    </g>
</svg>