<?xml version="1.0" encoding="UTF-8"?>
<svg width="24px" height="18px" viewBox="0 0 24 18" version="1.1" xmlns="http://www.w3.org/2000/svg" xmlns:xlink="http://www.w3.org/1999/xlink">
    <!-- Generator: Sketch 42 (36781) - http://www.bohemiancoding.com/sketch -->
    <title>icon / sass</title>
    <desc>Created with Sketch.</desc>
    <defs></defs>
    <g id="Layout-Mobile" stroke="none" stroke-width="1" fill="none" fill-rule="evenodd">
        <g id="Home" transform="translate(-208.000000, -1260.000000)" fill-rule="nonzero" fill="#808080">
            <g id="&lt;section&gt;-TL;-DR" transform="translate(7.000000, 525.000000)">
                <g id="tl;dr-content" transform="translate(33.000000, 0.000000)">
                    <g id="excel-with" transform="translate(0.000000, 682.000000)">
                        <g id="icons-set" transform="translate(0.000000, 50.000000)">
                            <g id="icon-/-sass" transform="translate(168.000000, 0.000000)">
                                <path d="M4.52650685,15.6898458 C4.09996139,15.9565731 3.45741594,16.3891185 2.95996139,16.8593003 C2.14341594,17.6300276 1.97268866,18.699664 2.4030523,18.9494821 C2.80177957,19.1802094 3.73177957,18.9053003 4.39723412,18.1798458 C5.09596139,17.4173003 5.38396139,16.4507549 5.08668866,15.3543912 C5.05177957,15.3751185 5.01741594,15.3958458 4.98359775,15.4149367 L4.98414321,15.4165731 L4.93887048,15.4422094 C4.76541594,15.5458458 4.62359775,15.6309367 4.52650685,15.6898458 Z M16.5150523,15.3434821 C16.2739614,15.8693003 16.2608705,16.0378458 16.3345068,16.0907549 C16.6857796,15.9647549 17.2655978,15.6603912 17.2705068,14.8471185 C17.2710523,14.7254821 17.244325,14.5951185 17.2006887,14.4582094 C16.8259614,14.7898458 16.6099614,15.1378458 16.5150523,15.3434821 Z M20.2775978,13.7562094 C20.100325,13.7354821 19.9306887,13.7229367 19.7681432,13.7191185 C19.0699614,13.7005731 18.5026887,13.8227549 18.042325,14.0147549 C18.1465068,14.2880276 18.228325,14.5727549 18.2386887,14.859664 C18.2654159,15.4891185 17.8317796,15.9554821 17.3806887,16.287664 C17.1172341,16.4818458 16.8357796,16.611664 16.6006887,16.6891185 C16.4114159,16.7687549 16.1615978,16.8505731 15.9837796,16.8145731 C15.5921432,16.7343912 15.3837796,16.3869367 15.6505068,15.6189367 C15.7945068,15.2038458 16.2090523,14.5711185 16.8799614,14.0267549 C16.7277796,13.7125731 16.5565068,13.3913003 16.470325,13.0973003 C16.2990523,12.5169367 16.2477796,12.1662094 16.2477796,12.1662094 C16.2477796,12.1662094 15.6952341,13.311664 14.982325,14.3529367 C14.9414159,14.4140276 14.8999614,14.4734821 14.8590523,14.5323912 C14.9992341,14.8580276 15.1094159,15.201664 15.1241432,15.5485731 C15.150325,16.1774821 14.8775978,16.653664 14.4254159,16.9858458 C14.1810523,17.1669367 13.9192341,17.2918458 13.6950523,17.3709367 C13.5515978,17.4331185 13.2608705,17.5362094 12.8457796,17.5640276 C12.6188705,17.5793003 12.4012341,17.5651185 12.2790523,17.4734821 C12.1115978,17.3469367 12.0914159,17.1903912 12.1781432,16.9771185 C12.2517796,16.7960276 12.8010523,16.1693003 13.2608705,15.6205731 C13.3879614,15.4689367 13.5090523,15.3140276 13.6170523,15.1711185 L13.614325,15.1640276 C13.614325,15.1640276 13.6972341,15.0571185 13.8330523,14.8689367 C13.6645068,14.5067549 13.4512341,14.1298458 13.3514159,13.7878458 C13.1801432,13.2074821 13.1288705,12.8562094 13.1288705,12.8562094 C13.1288705,12.8562094 12.5686887,14.2923912 11.9850523,15.4378458 C11.5334159,16.3253003 11.2317796,16.8631185 11.0959614,17.0993003 L11.0948705,17.1091185 C11.0948705,17.1091185 11.0741432,17.1434821 11.0392341,17.1974821 L11.0130523,17.2411185 L11.0125068,17.2367549 C10.8608705,17.4603912 10.5210523,17.8989367 10.1834159,17.8989367 C9.25614321,17.8989367 9.59650685,16.0149367 9.59650685,16.0149367 C9.59650685,16.0149367 9.32541594,16.7125731 9.01996139,17.3114821 C8.77068866,17.799664 8.54377957,18.2131185 8.04796139,18.2131185 C7.90559775,18.2131185 7.67923412,18.2087549 7.49159775,18.0303912 C7.06559775,17.6262094 6.73996139,16.5980276 6.80377957,15.8022094 C6.85832503,15.1253003 6.9630523,14.6567549 7.10541594,14.2662094 C6.85123412,14.4047549 6.55723412,14.5689367 6.25777957,14.7451185 L5.79741594,15.015664 L5.81214321,15.0434821 C6.19287048,15.7798458 6.29432503,17.3938458 5.46414321,18.6325731 C4.63396139,19.8723912 3.08814321,20.6262094 1.58159775,20.2083912 C1.09559775,20.0725731 0.361415937,19.0673003 0.994688664,17.6660276 C1.55268866,16.4300276 3.78523412,15.2622094 4.37323412,14.9709367 L4.53468866,14.8820276 C3.36196139,13.8554821 0.432870482,12.4711185 0.0226886639,10.3449367 C-0.0929476997,9.7460276 0.187415937,8.31475487 1.94541594,6.66911851 C3.42359775,5.28530032 5.48050685,4.22548214 7.38032503,3.54966396 C10.572325,2.41511851 13.9448705,3.08439123 14.4635978,5.11948214 C14.9741432,7.12075487 13.2368705,9.51475487 11.0135978,10.3749367 C9.02814321,11.1434821 7.38741594,11.0218458 6.71268866,10.8003912 C5.94632503,10.5483912 5.49687048,10.0422094 5.38668866,9.75693669 C5.34359775,9.64511851 5.26941594,9.45748214 5.38668866,9.39257305 C5.45868866,9.35275487 5.48759775,9.36257305 5.68014321,9.57530032 C5.86287048,9.77711851 6.59923412,10.3193003 7.99777957,10.1622094 C11.6670523,9.75093669 13.8777796,6.89766396 13.1795978,5.36220942 C12.6908705,4.28766396 9.86214321,3.80275487 6.32814321,5.56511851 C2.01414321,7.71584578 1.78014321,9.48857305 1.7430523,10.1622094 C1.64214321,12.0145731 4.02796139,12.9887549 5.31850685,14.3665731 L5.36814321,14.4211185 C5.60923412,14.2880276 5.8650523,14.1467549 6.11487048,14.0098458 C6.76559775,13.6520276 7.37923412,13.3165731 7.66559775,13.1605731 C8.11996139,12.5000276 9.04177957,11.7713003 9.70723412,11.7713003 C10.7714159,11.7713003 10.4059614,13.3002094 10.4059614,13.3002094 C10.4059614,13.3002094 10.4272341,13.2309367 10.4566887,13.2298458 C10.4866887,13.2287549 10.6039614,13.0285731 10.932325,13.1485731 C11.2705068,13.2729367 11.1935978,13.509664 11.1957796,13.533664 C11.1995978,13.5805731 10.7965068,14.9403912 10.6285068,15.8120276 C10.5488705,16.2287549 10.5946887,16.5314821 10.6181432,16.5314821 C10.6514159,16.5314821 10.7185068,16.4262094 10.7812341,16.3122094 L10.7801432,16.3083912 C10.7801432,16.3083912 10.8270523,16.2227549 10.9055978,16.0678458 L10.9214159,16.035664 L10.9219614,16.0367549 C11.0146887,15.8551185 11.1455978,15.5878458 11.2961432,15.2562094 C11.5917796,14.6049367 12.7186887,12.0914821 12.8146887,11.8133003 C12.9101432,11.5351185 12.9597796,11.2471185 13.0072341,11.1243912 C13.0541432,11.0005731 13.4517796,10.9078458 13.9175978,10.9111185 C14.3834159,10.9143912 14.430325,11.1134821 14.4335978,11.1543912 C14.4374159,11.1953003 14.2121432,11.7467549 14.1608705,12.1367549 C14.1090523,12.5267549 14.1581432,12.7214821 14.2012341,13.0487549 C14.2285068,13.2625731 14.3621432,13.5342094 14.520325,13.8418458 C15.0025068,13.0542094 15.8501432,11.5471185 15.9319614,11.1249367 C15.9881432,10.8358458 16.0770523,10.5587549 16.1245068,10.4360276 C16.1719614,10.3127549 16.5690523,10.2200276 17.0348705,10.2233003 C17.5006887,10.2265731 17.5475978,10.425664 17.5508705,10.4660276 C17.5541432,10.5074821 17.3288705,11.0583912 17.2775978,11.4483912 C17.2268705,11.8378458 17.2754159,12.0331185 17.3179614,12.3603912 C17.3545068,12.6407549 17.5710523,13.0171185 17.7854159,13.4447549 C18.2632341,13.2091185 18.810325,13.0373003 19.4332341,12.9789367 C19.5750523,12.9658458 19.7195978,12.9587549 19.8695978,12.9582094 C20.0245068,12.9571185 20.1914159,12.963664 20.346325,12.9778458 C20.4374159,12.9854821 20.730325,13.0378458 21.0095978,13.0913003 C21.2752341,13.1431185 22.170325,13.5151185 22.5292341,13.8473003 C22.920325,14.2089367 22.9454159,14.271664 23.1499614,14.6403912 C23.2159614,14.7603912 23.2765068,14.9218458 23.3239614,15.1302094 C23.3686887,15.3233003 23.3735978,15.5420276 23.3457796,15.7323912 C23.3185068,15.9238458 23.2999614,16.0280276 23.2470523,16.1294821 C23.1685068,16.2789367 23.1472341,16.3225731 23.0125068,16.4791185 C22.9317796,16.5729367 22.9126887,16.5947549 22.7632341,16.6994821 C22.6945068,16.7469367 22.5395978,16.8369367 22.4130523,16.9154821 C22.356325,16.9503912 22.2565068,17.0054821 22.1970523,17.0027549 C22.1119614,16.9994821 22.0661432,16.9989367 22.0688705,16.9094821 C22.0765068,16.6940276 22.3852341,16.6373003 22.5630523,16.4491185 C22.7015978,16.3023912 22.7746887,16.1382094 22.8401432,15.9287549 C22.9006887,15.7345731 22.8892341,15.5573003 22.8881432,15.4411185 C22.8865068,15.3151185 22.7725068,15.0680276 22.6546887,14.883664 C22.5445068,14.7107549 22.392325,14.5634821 22.3050523,14.5007549 C22.0317796,14.3043912 21.7857796,14.1233003 21.4726887,14.0103912 C21.0941432,13.8729367 20.5350523,13.7927549 20.5186887,13.7900276 C20.4428705,13.7763912 20.3594159,13.7654821 20.2775978,13.7562094 L20.2775978,13.7562094 Z M8.97141594,13.119664 C8.74614321,13.3722094 8.36159775,14.0234821 8.18214321,14.5678458 C7.82487048,15.6500276 7.97923412,16.7491185 8.23232503,16.815664 C8.52796139,16.8931185 9.01232503,15.4465731 9.24414321,14.8809367 C9.38977957,14.5269367 9.95487048,12.9549367 9.8310523,12.7443912 C9.7350523,12.5802094 9.33468866,12.7133003 8.97141594,13.119664 L8.97141594,13.119664 Z M13.0601432,16.7660276 C13.0601432,16.7660276 12.9886887,16.833664 13.020325,16.8527549 C13.0617796,16.8773003 13.1517796,16.8445731 13.2499614,16.7943912 C13.5281432,16.6193003 14.1515978,16.1829367 14.1532341,15.5371185 C14.1532341,15.5180276 14.1521432,15.5000276 14.1510523,15.4803912 C14.0059614,15.6702094 13.8728705,15.8387549 13.758325,15.9822094 C13.5614159,16.2271185 13.0601432,16.7660276 13.0601432,16.7660276 L13.0601432,16.7660276 Z" id="Shape"></path>
                            </g>
                        </g>
                    </g>
                </g>
            </g>
        </g>
    </g>
</svg>