<?xml version="1.0" encoding="UTF-8"?>
<svg width="24px" height="23px" viewBox="0 0 24 23" version="1.1" xmlns="http://www.w3.org/2000/svg" xmlns:xlink="http://www.w3.org/1999/xlink">
    <!-- Generator: Sketch 42 (36781) - http://www.bohemiancoding.com/sketch -->
    <title>icon / sketch</title>
    <desc>Created with Sketch.</desc>
    <defs></defs>
    <g id="Layout-Mobile" stroke="none" stroke-width="1" fill="none" fill-rule="evenodd">
        <g id="Home" transform="translate(-137.000000, -1258.000000)" fill="#808080">
            <g id="&lt;section&gt;-TL;-DR" transform="translate(7.000000, 525.000000)">
                <g id="tl;dr-content" transform="translate(33.000000, 0.000000)">
                    <g id="excel-with" transform="translate(0.000000, 682.000000)">
                        <g id="icons-set" transform="translate(0.000000, 50.000000)">
                            <g id="icon-/-sketch" transform="translate(97.000000, 0.000000)">
                                <path d="M20.5993656,3.38184073 L24,7.2595091 L12.0006338,23.2760533 L0,7.2595091 L3.40063443,3.38184073 L7.59348665,1.58659602 L16.4065134,1.58659602 L20.5993656,3.38184073 Z M22.557213,7.42159686 L20.4154126,4.51645504 L16.8684159,6.20241331 L19.3894906,9.86388545 L22.557213,7.42159686 Z M17.8567868,10.5884874 L15.4566442,6.33966504 L8.54339538,6.33966504 L6.14321317,10.5884874 L17.8567868,10.5884874 Z M15.4469702,2.38060287 L8.51698907,2.37966482 L5.31205788,3.77283982 L8.56629047,5.3013448 L15.4337095,5.3013448 L18.6879421,3.77283982 L15.4469702,2.38060287 Z M3.54497651,4.51645504 L1.40321574,7.42159686 L4.57089854,9.86388545 L7.09197318,6.20241331 L3.54497651,4.51645504 Z M2.69195602,9.82312584 L9.57209017,19.29199 L4.72165758,11.4104134 L2.69195602,9.82312584 Z M6.42504464,11.8830109 L12.0006338,21.7869215 L17.574995,11.8830109 L6.42504464,11.8830109 Z M14.3882989,19.29199 L21.2684331,9.82312584 L19.2387315,11.4104134 L14.3882989,19.29199 Z" id="symbol"></path>
                            </g>
                        </g>
                    </g>
                </g>
            </g>
        </g>
    </g>
</svg>